<svg xmlns="http://www.w3.org/2000/svg" xmlns:xlink="http://www.w3.org/1999/xlink" width="521" height="150">
  <g id="logo-group">
   <g id="logo-center">
    <g font-style="normal" font-weight="700" font-size="72px" font-family="'Comfortaa Bold Alt2'" text-anchor="middle" id="title">
     <path transform="translate(0 333.712)" stroke="#ed5658" fill="#ed5658" stroke-miterlimit="2" stroke-width="0" d="m130.75198,-313.504c-1.008,-1.152 -2.448,-1.728 -4.31998,-1.728c-2.01602,0 -3.744,0.432 -4.89602,1.152c-1.152,0.864 -2.01598,2.016 -2.448,3.744l-23.904,83.376l-22.032,-81.936c-0.432,-1.44 -1.29598,-2.736 -2.592,-3.6c-1.44,-0.864 -2.88,-1.296 -4.46398,-1.296c-1.72802,0 -3.312,0.576 -4.60802,1.44c-1.43998,1.008 -2.304,2.16 -2.592,3.6l-21.744,81.216l-23.616,-82.08c-0.576,-1.728 -1.58398,-3.168 -2.88,-4.176c-1.296,-0.864 -2.736,-1.44 -4.46398,-1.44c-2.01602,0 -3.456,0.576 -4.60802,1.728c-1.152,1.152 -1.58398,2.736 -1.58398,4.752c0,1.44 0.144,2.736 0.57598,3.888l28.94402,96.192c0.576,1.872 1.43998,3.312 2.88,4.32c1.29598,1.152 2.87998,1.584 4.60798,1.584c1.72802,0 3.168,-0.432 4.46402,-1.584c1.29598,-1.152 2.30398,-2.592 3.024,-4.464l21.744,-82.8l21.45598,82.944c0.576,1.728 1.44,3.168 2.88,4.32c1.296,1.152 2.88,1.584 4.608,1.584c1.728,0 3.168,-0.432 4.464,-1.584c1.296,-1.152 2.30402,-2.592 3.024,-4.464l28.94402,-96.048c0.288,-1.152 0.576,-2.592 0.576,-4.032c0,-1.872 -0.576,-3.456 -1.44002,-4.608z" id="path191995"/>
     <path transform="translate(0 333.712)" stroke="#f36b6e" fill="#f36b6e" stroke-miterlimit="2" stroke-width="0" d="m208.56203,-270.304c-7.776,-7.776 -17.136,-11.808 -28.224,-11.808c-10.94398,0 -20.44798,4.032 -28.224,11.808c-7.776,7.776 -11.664,17.136 -11.664,28.224c0,11.088 3.888,20.448 11.664,28.224c7.77602,7.776 17.28002,11.664 28.224,11.664c9.93602,0 18.72002,-3.168 26.208,-9.648l0,2.736c0,2.016 0.576,3.6 2.016,4.896c1.296,1.44 2.88002,2.016 4.896,2.016c1.872,0 3.45602,-0.576 4.896,-2.016c1.29602,-1.296 2.016,-2.88 2.016,-4.896l0,-32.976c0,-11.088 -3.888,-20.448 -11.808,-28.224zm-28.224,54.288c-7.2,0 -13.392,-2.448 -18.432,-7.632c-5.18398,-5.04 -7.63198,-11.232 -7.63198,-18.432c0,-7.2 2.448,-13.392 7.63198,-18.432c5.04,-5.184 11.232,-7.776 18.432,-7.776c7.20002,0 13.392,2.592 18.43202,7.776c5.18398,5.04 7.77598,11.232 7.77598,18.432c0,7.2 -2.592,13.392 -7.77598,18.432c-5.04002,5.184 -11.232,7.632 -18.43202,7.632z" id="path191997"/>
     <path transform="translate(0 333.712)" stroke="#fa8084" fill="#fa8084" stroke-miterlimit="2" stroke-width="0" d="m255.3625,-313.216c-1.44,1.44 -2.01598,3.168 -2.01598,5.184l0,78.624c0,5.184 0.86398,9.792 2.736,13.824c1.728,4.032 4.31998,7.2 7.632,9.504c3.31198,2.304 7.05598,3.312 11.232,3.312l0.288,0c2.87998,0 5.184,-0.576 7.05598,-2.016c1.728,-1.296 2.736,-3.024 2.736,-5.184c0,-2.016 -0.72,-3.744 -1.872,-5.184c-1.15198,-1.296 -2.73598,-2.016 -4.608,-2.016l-3.59998,0c-2.16002,0 -3.88802,-1.152 -5.184,-3.456c-1.44,-2.304 -2.01602,-5.184 -2.01602,-8.784l0,-78.624c0,-2.016 -0.72,-3.744 -2.016,-5.184c-1.44,-1.296 -3.16798,-2.016 -5.184,-2.016c-2.16,0 -3.88798,0.72 -5.184,2.016z" id="path191999"/>
     <path transform="translate(0 333.712)" stroke="#fe949a" fill="#fe949a" stroke-miterlimit="2" stroke-width="0" d="m312.67506,-313.216c-1.44,1.44 -2.016,3.168 -2.016,5.184l0,78.624c0,5.184 0.864,9.792 2.73602,13.824c1.728,4.032 4.31998,7.2 7.632,9.504c3.31198,2.304 7.05598,3.312 11.232,3.312l0.288,0c2.87998,0 5.184,-0.576 7.05598,-2.016c1.728,-1.296 2.736,-3.024 2.736,-5.184c0,-2.016 -0.72,-3.744 -1.872,-5.184c-1.15198,-1.296 -2.73598,-2.016 -4.608,-2.016l-3.59998,0c-2.16002,0 -3.88802,-1.152 -5.184,-3.456c-1.44,-2.304 -2.01602,-5.184 -2.01602,-8.784l0,-78.624c0,-2.016 -0.72,-3.744 -2.016,-5.184c-1.44,-1.296 -3.16798,-2.016 -5.184,-2.016c-2.16,0 -3.88798,0.72 -5.184,2.016z" id="path192001"/>
     <path transform="translate(0 333.712)" stroke="#ffa9af" fill="#ffa9af" stroke-miterlimit="2" stroke-width="0" d="m400.47276,-202.192c9.504,0 17.856,-2.88 25.2,-8.928c1.584,-1.152 2.304,-2.736 2.592,-4.608c0.144,-2.016 -0.288,-3.6 -1.584,-5.184c-1.152,-1.44 -2.736,-2.304 -4.608,-2.448c-1.872,-0.144 -3.6,0.288 -5.04,1.584c-4.896,3.888 -10.368,5.76 -16.56,5.76c-7.2,0 -13.392,-2.448 -18.432,-7.632c-5.184,-5.04 -7.632,-11.232 -7.632,-18.432c0,-7.2 2.448,-13.392 7.632,-18.576c5.04,-5.04 11.232,-7.632 18.432,-7.632c5.904,0 11.232,1.872 15.984,5.472c4.608,3.6 7.632,8.208 9.216,13.824l-25.2,0c-1.872,0 -3.6,0.72 -4.896,2.016c-1.296,1.296 -2.016,3.024 -2.016,4.896c0,1.872 0.72,3.6 2.016,4.896c1.296,1.296 3.024,2.016 4.896,2.016l33.12,0c1.872,0 3.456,-0.72 4.752,-2.016c1.44,-1.296 2.16,-3.024 2.16,-4.896c0,-11.088 -4.032,-20.448 -11.808,-28.224c-7.776,-7.776 -17.136,-11.808 -28.224,-11.808c-11.088,0 -20.448,4.032 -28.224,11.808c-7.776,7.776 -11.664,17.136 -11.664,28.224c0,11.088 3.888,20.448 11.664,28.224c7.776,7.776 17.136,11.664 28.224,11.664z" id="path192003"/>
     <path transform="translate(0 333.712)" stroke="#f4c5c5" fill="#f4c5c5" stroke-miterlimit="2" stroke-width="0" d="m513.99019,-283.696c-12.096,0 -22.32,4.32 -30.96,12.816c-8.496,8.496 -12.672,18.72 -12.672,30.816l0,30.384c0,2.016 0.576,3.6 2.016,4.896c1.296,1.44 2.88,2.016 4.896,2.016c1.872,0 3.456,-0.576 4.752,-2.016c1.44,-1.296 2.16,-2.88 2.16,-4.896l0,-30.384c0,-8.208 2.88,-15.264 8.64,-21.024c5.904,-5.904 12.96,-8.784 21.168,-8.784c1.872,0 3.456,-0.72 4.896,-2.016c1.296,-1.44 2.016,-3.024 2.016,-4.896c0,-1.872 -0.72,-3.6 -2.016,-4.896c-1.44,-1.296 -3.024,-2.016 -4.896,-2.016z" id="path192005"/>
    </g>
   </g>
  </g>
</svg>